<svg width="340" height="340" viewBox="0 0 340 340" fill="none" xmlns="http://www.w3.org/2000/svg">
<path d="M249.59 335.724L57.4067 325.633C36.9833 324.563 21.2902 309.832 22.3602 292.738L38.5225 33.0603C39.5737 15.9658 56.9938 2.97678 77.4172 4.06351L269.601 14.1546C290.024 15.2241 305.717 29.9553 304.647 47.0498L288.485 306.727C287.434 323.822 270.013 336.811 249.59 335.724Z" fill="#EFFAF3"/>
<mask id="mask0_2911_97419" style="mask-type:alpha" maskUnits="userSpaceOnUse" x="21" y="4" width="283" height="332">
<path d="M248.38 335.724L56.1133 325.633C35.681 324.563 19.9812 309.832 21.0516 292.738L37.2209 33.0603C38.2726 15.9658 55.7001 2.97678 76.1324 4.06351L268.399 14.1546C288.831 15.2241 304.531 29.9553 303.46 47.0498L287.291 306.727C286.239 323.822 268.812 336.811 248.38 335.724Z" fill="#EFFAF3"/>
</mask>
<g mask="url(#mask0_2911_97419)">
<path d="M101.301 449.155L119.056 295.951L214.906 301.475C214.906 301.475 224.077 341.838 224.872 380.308C225.667 418.779 218.414 662.329 216.876 665.583C215.339 668.836 108.882 666.026 102.604 661.569C96.3267 657.111 101.301 449.155 101.301 449.155Z" fill="#F26A2B"/>
<path d="M102.199 293.511C102.199 293.511 -30.2817 591.574 -29.4212 598.429C-28.5606 605.284 54.3827 658.451 59.5997 658.788C64.8166 659.126 107.082 592.425 107.082 592.425L130.907 296.043L102.199 293.511Z" fill="#F26A2B"/>
<path d="M208.36 346.223C190.97 345.098 181.769 322.849 181.669 322.586C181.572 322.348 181.572 322.081 181.67 321.843C181.768 321.605 181.956 321.416 182.194 321.316C182.435 321.226 182.702 321.233 182.938 321.335C183.174 321.437 183.362 321.627 183.462 321.864C183.446 322.119 193.998 347.25 213.088 344.037C213.344 343.997 213.605 344.057 213.817 344.206C214.029 344.354 214.175 344.579 214.224 344.832C214.265 345.088 214.204 345.349 214.056 345.561C213.908 345.773 213.683 345.919 213.429 345.969C211.754 346.242 210.054 346.328 208.36 346.223Z" fill="black"/>
<path d="M99.616 605.237C99.4853 605.226 99.3581 605.188 99.2417 605.128C99.1253 605.067 99.022 604.984 98.9377 604.884C98.8534 604.783 98.7897 604.667 98.7503 604.542C98.711 604.416 98.6966 604.285 98.7082 604.154L126.711 355.496L101.85 336.681C101.746 336.605 101.658 336.51 101.591 336.4C101.525 336.29 101.482 336.167 101.464 336.04C101.446 335.913 101.454 335.783 101.487 335.659C101.521 335.535 101.579 335.419 101.659 335.318C101.815 335.112 102.046 334.977 102.301 334.941C102.556 334.905 102.815 334.972 103.022 335.126L128.327 354.273C128.456 354.378 128.557 354.515 128.62 354.669C128.684 354.824 128.707 354.992 128.689 355.158L100.65 604.373C100.617 604.62 100.492 604.845 100.301 605.005C100.109 605.165 99.8652 605.248 99.616 605.237Z" fill="black"/>
<path d="M161.502 134.265C161.502 134.265 135.179 133.75 123.408 154.107C111.637 174.465 95.6667 299.354 95.6667 299.354C95.6667 299.354 123.933 314.105 166.447 316.295C208.961 318.486 224.027 308.377 224.027 308.377L237.207 231.669C237.207 231.669 239.068 149.969 228.934 143.585C218.799 137.202 179.37 130.88 161.502 134.265Z" fill="#5FCF86"/>
<path d="M166.062 67.0334C166.062 67.0334 154.402 40.3173 167.292 36.494C180.182 32.6708 193.106 48.1293 193.106 48.1293C193.106 48.1293 220.18 53.955 228.742 69.8996C237.304 85.8443 208.584 108.342 208.584 108.342L166.062 67.0334Z" fill="black"/>
<path d="M203.03 113.292L201.381 138.798C201.381 138.798 196.271 145.802 181.397 146.098C170.277 146.31 166.542 143.577 166.542 143.577L168.881 130.806L171.177 118.357L198.367 114.108L203.03 113.292Z" fill="#F5C2A2"/>
<path d="M198.456 114.021C198.3 114.868 198.004 115.683 197.578 116.432C191.098 128.773 175.407 130.552 168.97 130.718L171.265 118.27L198.456 114.021Z" fill="black"/>
<path d="M169.199 60.0198C169.199 60.0198 153.897 91.0461 158.064 109.058C162.231 127.07 178.545 125.029 188.402 122.034C193.976 120.49 199.035 117.48 203.052 113.318C205.778 114.259 208.731 114.315 211.491 113.477C214.25 112.639 216.675 110.951 218.418 108.654C224.859 100.502 221.583 90.6737 216.504 88.203C211.425 85.7324 205.1 89.2118 205.1 89.2118L210.337 80.2368C210.337 80.2368 192.235 32.5206 169.199 60.0198Z" fill="#F5C2A2"/>
<path d="M205.213 102.932C205.007 102.92 204.809 102.843 204.649 102.712C204.489 102.581 204.375 102.402 204.324 102.202C204.272 102.002 204.285 101.79 204.361 101.598C204.437 101.406 204.573 101.243 204.748 101.132L216.689 93.6154C216.911 93.4856 217.174 93.444 217.425 93.4991C217.676 93.5541 217.897 93.7018 218.044 93.9125C218.177 94.1354 218.217 94.4013 218.158 94.6539C218.098 94.9064 217.942 95.1258 217.723 95.2656L205.782 102.782C205.616 102.898 205.415 102.95 205.213 102.932Z" fill="black"/>
<path d="M215.634 103.444L215.402 103.429L207.991 101.017C207.745 100.935 207.541 100.761 207.422 100.532C207.302 100.303 207.276 100.036 207.348 99.788C207.43 99.5437 207.605 99.3415 207.835 99.2255C208.065 99.1095 208.331 99.0892 208.576 99.1688L216.012 101.559C216.248 101.626 216.449 101.78 216.577 101.989C216.705 102.198 216.75 102.448 216.702 102.688C216.654 102.929 216.517 103.142 216.319 103.286C216.121 103.431 215.876 103.495 215.632 103.467L215.634 103.444Z" fill="black"/>
<path d="M167.87 96.3943C167.635 96.3874 167.412 96.2943 167.242 96.133C167.072 95.9717 166.967 95.7533 166.948 95.5197C166.661 93.0078 167.017 90.4643 167.983 88.1278C168.948 85.7913 170.492 83.7386 172.469 82.1624C172.679 82.0127 172.941 81.9525 173.195 81.9952C173.45 82.0378 173.678 82.1799 173.828 82.39C173.905 82.4911 173.96 82.6069 173.99 82.7302C174.02 82.8534 174.025 82.9816 174.004 83.1068C173.983 83.232 173.936 83.3515 173.867 83.4579C173.798 83.5644 173.707 83.6555 173.602 83.7257C171.92 85.1208 170.615 86.9165 169.808 88.9475C169.002 90.9785 168.719 93.1796 168.985 95.3487C169.002 95.6052 168.92 95.8586 168.756 96.0561C168.591 96.2536 168.357 96.3802 168.101 96.4093L167.87 96.3943Z" fill="black"/>
<path d="M164.49 83.3705L164.328 83.36C164.204 83.3196 164.09 83.2549 163.992 83.1699C163.894 83.0848 163.813 82.9809 163.756 82.8644C163.698 82.7479 163.665 82.6212 163.657 82.4915C163.649 82.3618 163.667 82.2318 163.71 82.1092L165.663 76.3911C165.701 76.2684 165.763 76.1545 165.846 76.0563C165.928 75.9582 166.03 75.8777 166.145 75.8199C166.26 75.762 166.385 75.728 166.513 75.7197C166.641 75.7115 166.769 75.7293 166.891 75.772C167.014 75.8124 167.128 75.8771 167.226 75.9622C167.325 76.0472 167.405 76.151 167.462 76.2675C167.52 76.384 167.554 76.5109 167.561 76.6405C167.569 76.7702 167.551 76.9002 167.508 77.0228L165.555 82.7409C165.482 82.9555 165.334 83.1367 165.139 83.2521C164.943 83.3676 164.713 83.4095 164.49 83.3705Z" fill="black"/>
<path d="M180.496 85.5007L180.24 85.4842C180.118 85.4466 180.004 85.3845 179.906 85.3017C179.807 85.2189 179.727 85.1171 179.669 85.0025C179.611 84.8878 179.577 84.7626 179.569 84.6345C179.561 84.5063 179.579 84.3778 179.621 84.2567L181.576 78.5155C181.667 78.2804 181.845 78.0896 182.074 77.9831C182.303 77.8767 182.564 77.8627 182.802 77.9444C183.041 78.026 183.238 78.197 183.354 78.4212C183.469 78.6454 183.493 78.9055 183.421 79.1471L181.466 84.8883C181.387 85.0779 181.251 85.2384 181.078 85.348C180.904 85.4576 180.701 85.5109 180.496 85.5007Z" fill="black"/>
<path d="M166.068 67.0344C167.115 65.526 168.531 64.3109 170.181 63.5046C171.831 62.6983 173.66 62.3278 175.493 62.4283C177.379 62.5553 179.219 63.0697 180.897 63.9394C182.575 64.8091 184.057 66.0154 185.248 67.4831C185.248 67.4831 181.822 77.9723 190.088 84.0951C198.353 90.2179 205.107 89.1179 205.107 89.1179L211.517 87.204L216.745 78.3681L199.87 57.7645L177.223 43.9592L164.65 54.0431L166.068 67.0344Z" fill="black"/>
<path d="M193.104 48.1296C193.104 48.1296 194.801 34.129 209.195 41.2535C223.589 48.3781 221.234 67.5052 221.234 67.5052L193.104 48.1296Z" fill="black"/>
<path d="M164.828 68.1416C164.586 68.1331 164.357 68.0331 164.187 67.8622C164.016 67.6912 163.917 67.4619 163.909 67.2206C163.905 67.0918 163.926 66.9634 163.971 66.8427C164.017 66.7221 164.086 66.6116 164.174 66.5178C164.262 66.4239 164.368 66.3486 164.486 66.2959C164.604 66.2433 164.73 66.2144 164.859 66.2111L169.712 66.0592C169.841 66.0513 169.969 66.0701 170.09 66.1145C170.211 66.1588 170.321 66.2277 170.414 66.3169C170.506 66.406 170.579 66.5136 170.629 66.6325C170.678 66.7514 170.701 66.8792 170.699 67.0078C170.708 67.2644 170.616 67.5144 170.443 67.7037C170.269 67.893 170.028 68.0063 169.772 68.019L164.92 68.1476L164.828 68.1416Z" fill="black"/>
<path d="M186.104 76.1322C185.973 76.1582 185.837 76.1495 185.71 76.1067L179.377 72.8565C179.148 72.7392 178.974 72.5357 178.894 72.2906C178.814 72.0454 178.834 71.7784 178.95 71.5481C179.072 71.3171 179.28 71.1431 179.529 71.0634C179.777 70.9837 180.048 71.0048 180.281 71.122L186.589 74.3939C186.819 74.5112 186.993 74.7147 187.073 74.9598C187.153 75.205 187.133 75.4718 187.017 75.7022C186.916 75.8484 186.779 75.9653 186.619 76.0408C186.458 76.1164 186.281 76.1479 186.104 76.1322Z" fill="black"/>
<path d="M164.871 104.863C164.704 104.853 164.542 104.8 164.401 104.71C164.26 104.619 164.145 104.493 164.066 104.345L160.837 98.4783C160.775 98.3658 160.736 98.2423 160.722 98.1148C160.709 97.9873 160.72 97.8582 160.756 97.7351C160.792 97.612 160.852 97.4972 160.933 97.3973C161.013 97.2975 161.112 97.2145 161.225 97.1531C161.454 97.0347 161.719 97.0089 161.966 97.0813C162.213 97.1536 162.422 97.3184 162.55 97.5413L165.78 103.408C165.842 103.521 165.88 103.644 165.894 103.772C165.908 103.899 165.897 104.029 165.86 104.152C165.824 104.275 165.764 104.39 165.684 104.489C165.603 104.589 165.504 104.672 165.392 104.734C165.231 104.819 165.052 104.864 164.871 104.863Z" fill="black"/>
<path d="M115.206 136.649C115.206 136.649 134.9 84.1594 141.803 85.4208C148.707 86.6822 161.182 101.157 163.734 106.328C166.287 111.499 163.003 117.644 163.003 117.644C163.003 117.644 165.473 121.203 162.644 123.185C159.815 125.168 152.414 120.079 152.414 120.079C152.414 120.079 157.005 154.58 136.801 157.372C116.596 160.163 115.206 136.649 115.206 136.649Z" fill="#F5C2A2"/>
<path d="M119.033 234.781C124.968 224.302 129.709 213.19 133.166 201.654C138.175 183.979 145.331 157.572 145.331 157.572L111.783 129.067C111.783 129.067 79.4241 172.193 66.3662 214.611C53.3083 257.028 60.0924 270.576 82.1761 269.327C108.172 267.702 119.033 234.781 119.033 234.781Z" fill="#5FCF86"/>
<path d="M121.931 239.672L108.164 281.531C99.4227 280.966 75.863 279.116 68.6189 275.202C59.6172 270.382 58.8313 264.533 58.8313 264.533C58.8313 264.533 52.913 258.12 53.4954 254.874C54.0778 251.629 58.5978 237.182 58.5978 237.182C58.5978 237.182 54.278 224.772 58.982 224.401C63.686 224.03 71.8239 223.485 71.8239 223.485C71.8239 223.485 87.3225 217.851 93.718 220.128C100.113 222.404 116.404 239.454 116.404 239.454L121.931 239.672Z" fill="#F5C2A2"/>
<path d="M178.862 146.75C169.008 146.113 165.356 143.548 165.1 143.531C164.997 143.456 164.909 143.361 164.842 143.251C164.775 143.142 164.731 143.02 164.711 142.894C164.691 142.767 164.696 142.638 164.726 142.513C164.756 142.388 164.811 142.271 164.886 142.167C164.962 142.063 165.057 141.976 165.166 141.909C165.276 141.842 165.397 141.797 165.524 141.777C165.65 141.757 165.78 141.763 165.904 141.793C166.029 141.823 166.147 141.877 166.25 141.953C166.25 141.953 170.89 145.093 183.7 145.037C187.281 145.122 190.84 144.446 194.141 143.054C197.442 141.662 200.41 139.586 202.849 136.962C203.017 136.79 203.242 136.686 203.481 136.67C203.721 136.653 203.958 136.726 204.148 136.874C204.337 137.022 204.465 137.234 204.508 137.47C204.55 137.707 204.504 137.95 204.378 138.155C201.773 141.059 198.565 143.36 194.979 144.897C191.393 146.435 187.515 147.172 183.616 147.057C181.949 146.903 180.323 146.844 178.862 146.75Z" fill="black"/>
<path d="M93.2737 228.74L93.0186 228.723L76.8711 222.789C76.748 222.749 76.6343 222.684 76.537 222.599C76.4397 222.514 76.3608 222.409 76.3052 222.292C76.2495 222.175 76.2183 222.048 76.2134 221.919C76.2085 221.79 76.2301 221.661 76.2767 221.54C76.3724 221.303 76.555 221.112 76.787 221.006C77.019 220.9 77.2828 220.887 77.5244 220.969L93.6719 226.903C93.7931 226.945 93.9047 227.012 94.0003 227.098C94.0958 227.184 94.1735 227.288 94.2287 227.404C94.284 227.52 94.3157 227.646 94.3221 227.774C94.3286 227.902 94.3096 228.031 94.2663 228.152C94.1819 228.34 94.0412 228.498 93.8634 228.603C93.6856 228.709 93.4796 228.756 93.2737 228.74Z" fill="black"/>
<path d="M63.0984 238.151C62.9442 238.186 62.783 238.176 62.6347 238.121L57.042 234.592C56.9155 234.534 56.8029 234.45 56.7119 234.344C56.6208 234.239 56.5533 234.115 56.5139 233.982C56.4745 233.848 56.4642 233.708 56.4835 233.57C56.5029 233.432 56.5515 233.3 56.6262 233.183C56.7008 233.065 56.7997 232.965 56.9163 232.889C57.0328 232.813 57.1643 232.762 57.3019 232.741C57.4395 232.72 57.58 232.729 57.714 232.766C57.8481 232.804 57.9724 232.87 58.0789 232.96L63.6716 236.488C63.7798 236.554 63.8738 236.64 63.9481 236.743C64.0225 236.845 64.0756 236.962 64.1045 237.085C64.1334 237.208 64.1374 237.336 64.1163 237.461C64.0953 237.586 64.0495 237.705 63.9818 237.812C63.8753 237.939 63.7384 238.036 63.5839 238.096C63.4293 238.155 63.2623 238.174 63.0984 238.151Z" fill="black"/>
<path d="M162.933 115.823C162.716 115.816 162.508 115.737 162.342 115.598L148.19 102.925C148.093 102.843 148.014 102.742 147.957 102.629C147.899 102.516 147.865 102.393 147.856 102.267C147.847 102.14 147.863 102.014 147.903 101.894C147.944 101.773 148.008 101.663 148.092 101.568C148.176 101.47 148.278 101.391 148.393 101.333C148.508 101.276 148.633 101.241 148.761 101.232C148.89 101.223 149.018 101.24 149.14 101.281C149.262 101.322 149.375 101.386 149.472 101.471L163.646 114.146C163.741 114.229 163.818 114.331 163.874 114.445C163.929 114.558 163.961 114.682 163.968 114.808C163.975 114.934 163.957 115.06 163.914 115.179C163.872 115.298 163.807 115.408 163.722 115.501C163.623 115.611 163.501 115.697 163.364 115.753C163.227 115.809 163.08 115.832 162.933 115.823Z" fill="black"/>
<path d="M161.462 103.99C161.275 103.979 161.094 103.919 160.938 103.816L148.786 94.7878C148.576 94.6353 148.436 94.406 148.396 94.1501C148.356 93.8942 148.419 93.6329 148.571 93.4236C148.724 93.2142 148.953 93.074 149.209 93.0338C149.465 92.9936 149.726 93.0566 149.936 93.2091L162.088 102.238C162.192 102.313 162.279 102.408 162.346 102.518C162.413 102.627 162.458 102.749 162.478 102.875C162.498 103.002 162.493 103.131 162.462 103.256C162.432 103.381 162.378 103.498 162.302 103.602C162.207 103.733 162.08 103.837 161.933 103.905C161.786 103.973 161.624 104.002 161.462 103.99Z" fill="black"/>
<path d="M116.492 235.505L105.487 286.857C105.487 286.857 216.538 326.986 244.196 270.867C271.854 214.747 248.3 154.501 228.848 143.487C209.397 132.473 183.592 222.591 183.592 222.591L116.492 235.505Z" fill="#5FCF86"/>
<path d="M131.18 231.21L117.412 228.747C114.999 228.316 112.693 229.922 112.262 232.334L102.587 286.429C102.155 288.842 103.761 291.147 106.174 291.579L119.943 294.041C122.356 294.473 124.661 292.867 125.093 290.454L134.768 236.36C135.199 233.947 133.593 231.641 131.18 231.21Z" fill="#CFF1DB"/>
<path d="M107.617 128.684L98.7849 140.124C97.3655 141.963 97.7052 144.604 99.5437 146.023L137.651 175.445C139.489 176.865 142.13 176.525 143.549 174.686L152.381 163.246C153.801 161.408 153.461 158.767 151.623 157.347L113.516 127.925C111.677 126.506 109.036 126.846 107.617 128.684Z" fill="#CFF1DB"/>
<path d="M153.138 232.612C152.953 232.6 152.776 232.536 152.626 232.428C152.477 232.319 152.361 232.17 152.293 231.999C152.195 231.76 152.196 231.493 152.294 231.256C152.392 231.018 152.58 230.828 152.817 230.729C153.103 230.631 179.692 219.846 205.219 219.355C205.356 219.335 205.496 219.344 205.63 219.381C205.764 219.419 205.888 219.485 205.994 219.575C206.1 219.664 206.185 219.775 206.245 219.901C206.305 220.026 206.337 220.162 206.34 220.301C206.343 220.44 206.316 220.578 206.261 220.705C206.206 220.833 206.125 220.947 206.022 221.041C205.92 221.135 205.798 221.205 205.667 221.248C205.535 221.291 205.395 221.306 205.257 221.29C180.102 221.782 153.825 232.424 153.563 232.523C153.43 232.585 153.285 232.615 153.138 232.612Z" fill="black"/>
<path d="M183.53 223.542C183.377 223.533 183.228 223.488 183.095 223.411C182.963 223.333 182.85 223.226 182.767 223.097C182.665 222.922 182.618 222.72 182.631 222.518C182.644 222.315 182.717 222.121 182.841 221.961C183.804 220.742 192.523 210.13 198.449 209.954C199.068 209.922 199.687 210.03 200.26 210.268C200.833 210.507 201.345 210.87 201.759 211.332C202.158 211.72 202.441 212.211 202.579 212.75C202.717 213.289 202.703 213.855 202.539 214.387C201.068 219.134 186.697 222.815 183.834 223.515L183.53 223.542ZM198.788 211.909L198.51 211.891C195.105 211.973 189.67 217.163 186.291 220.81C192.34 219.082 199.837 216.214 200.716 213.78C200.769 213.571 200.762 213.351 200.698 213.145C200.633 212.94 200.512 212.756 200.349 212.615C200.145 212.406 199.902 212.24 199.634 212.127C199.365 212.013 199.076 211.955 198.785 211.955L198.788 211.909Z" fill="black"/>
</g>
<circle cx="288.042" cy="79.1595" r="38.7164" transform="rotate(28.091 288.042 79.1595)" fill="#F26A2B"/>
<path d="M286.328 67.2721C287.163 64.2199 285.154 61.4309 280.925 60.2681C279.233 59.6983 277.425 59.562 275.666 59.8718C273.908 60.1816 272.255 60.9274 270.859 62.0412L266.51 57.1232C270.697 53.8215 276.318 52.6585 283.144 54.5426C291.2 56.6966 295.517 61.8761 293.791 68.1653C291.344 77.0523 281.778 75.3154 280.081 81.7917L273.136 79.8875C275.283 71.7633 284.828 72.7372 286.328 67.2721ZM269.74 88.4612C269.96 87.5952 270.433 86.8144 271.098 86.2179C271.764 85.6213 272.591 85.236 273.476 85.111C274.361 84.9861 275.263 85.127 276.067 85.5159C276.872 85.9049 277.542 86.5242 277.994 87.2952C278.446 88.0663 278.658 88.9543 278.603 89.8462C278.549 90.7381 278.231 91.5938 277.689 92.3044C277.147 93.0149 276.406 93.5484 275.561 93.8369C274.715 94.1254 273.803 94.1558 272.939 93.9245C272.356 93.7905 271.807 93.5374 271.326 93.1807C270.846 92.8241 270.444 92.3717 270.147 91.8522C269.85 91.3327 269.663 90.7573 269.599 90.1622C269.535 89.5671 269.595 88.9652 269.775 88.3945L269.74 88.4612Z" fill="white"/>
<path d="M283.935 94.8359C284.358 94.5128 284.842 94.2783 285.357 94.1465C285.873 94.0146 286.409 93.9881 286.936 94.0685C287.462 94.149 287.966 94.3346 288.419 94.6145C288.871 94.8944 289.263 95.2627 289.57 95.6974C289.913 96.0988 290.171 96.5654 290.329 97.0691C290.487 97.5729 290.542 98.1035 290.49 98.6289C290.438 99.1543 290.28 99.6638 290.027 100.127C289.773 100.59 289.428 100.997 289.013 101.323C288.601 101.658 288.127 101.907 287.617 102.055C287.107 102.202 286.573 102.246 286.046 102.183C285.519 102.12 285.01 101.952 284.55 101.688C284.089 101.424 283.686 101.07 283.365 100.648C283.006 100.236 282.735 99.7542 282.568 99.2334C282.401 98.7126 282.343 98.1631 282.396 97.6189C282.45 97.0747 282.614 96.5471 282.878 96.0685C283.143 95.59 283.503 95.1705 283.935 94.8359ZM309.355 74.9915L314.092 80.9106L294.545 94.8983L291.365 90.9261L309.355 74.9915Z" fill="white"/>
</svg>
